<svg xmlns="http://www.w3.org/2000/svg" xmlns:xlink="http://www.w3.org/1999/xlink" width="121.379" height="133.465" viewBox="0 0 121.379 133.465">
  <defs>
    <filter id="_7787575_security_protection_secure_shield_lock_icon" x="0" y="0" width="121.379" height="133.465" filterUnits="userSpaceOnUse">
      <feOffset dy="3" input="SourceAlpha"/>
      <feGaussianBlur stdDeviation="7.5" result="blur"/>
      <feFlood flood-opacity="0.502"/>
      <feComposite operator="in" in2="blur"/>
      <feComposite in="SourceGraphic"/>
    </filter>
  </defs>
  <g transform="matrix(1, 0, 0, 1, 0, 0)" filter="url(#_7787575_security_protection_secure_shield_lock_icon)">
    <path id="_7787575_security_protection_secure_shield_lock_icon-2" data-name="7787575_security_protection_secure_shield_lock_icon" d="M96.775,26.772A74.492,74.492,0,0,1,81.3,22.967c-6.088-2.283-11.416-5.074-14.206-8.625l-.254-.254-.254-.254c-.254,0-.254-.254-.507-.254s-.254-.254-.507-.254-.254-.254-.507-.254-.254-.254-.507-.254H61.513c-.254,0-.254,0-.507.254-.254,0-.254,0-.507.254-.254,0-.254.254-.507.254s-.254.254-.507.254l-.254.254-.254.254c-3.044,3.552-8.371,6.342-14.206,8.625A89.579,89.579,0,0,1,29.3,26.772a5.19,5.19,0,0,0-4.566,5.074c0,12.684.761,26.89,5.581,39.32A50.647,50.647,0,0,0,45.785,92.729,33.582,33.582,0,0,0,53.9,97.8c3.3,1.776,7.357,4.566,11.162,3.044,9.64-3.552,19.026-10.4,24.861-19.026a55.246,55.246,0,0,0,5.581-10.908c4.82-12.43,5.581-26.636,5.581-39.32C101.341,29.309,99.312,27.28,96.775,26.772Zm-10.4,40.842C82.569,77.508,75.72,85.88,63.289,90.953,50.859,85.88,44.01,77.508,40.2,67.615c-3.552-9.386-4.566-20.294-4.82-31.456a86.612,86.612,0,0,0,13.191-3.552,48.558,48.558,0,0,0,14.713-7.864A48.558,48.558,0,0,0,78,32.607a79.461,79.461,0,0,0,13.191,3.552c-.254,11.162-1.268,22.07-4.82,31.456Zm-25.114-7.1L51.113,53.155a5.074,5.074,0,1,0-6.088,8.118L58.977,71.42c2.79,2.029,5.581.761,7.61-1.776,5.581-6.849,11.416-13.7,17-20.548a5.051,5.051,0,1,0-7.864-6.342Z" transform="translate(-2.23 6.68)" fill="#fff"/>
  </g>
</svg>
